<?xml version="1.0" encoding="UTF-8" standalone="no"?>
<!-- Created with Inkscape (http://www.inkscape.org/) -->

<svg
   width="125mm"
   height="15mm"
   viewBox="0 0 125 15"
   version="1.1"
   id="svg1"
   inkscape:version="1.3.2 (091e20e, 2023-11-25, custom)"
   sodipodi:docname="avina.svg"
   xmlns:inkscape="http://www.inkscape.org/namespaces/inkscape"
   xmlns:sodipodi="http://sodipodi.sourceforge.net/DTD/sodipodi-0.dtd"
   xmlns="http://www.w3.org/2000/svg"
   xmlns:svg="http://www.w3.org/2000/svg">
  <sodipodi:namedview
     id="namedview1"
     pagecolor="#ffffff"
     bordercolor="#000000"
     borderopacity="0.25"
     inkscape:showpageshadow="2"
     inkscape:pageopacity="0.0"
     inkscape:pagecheckerboard="0"
     inkscape:deskcolor="#d1d1d1"
     inkscape:document-units="mm"
     inkscape:zoom="1.8275784"
     inkscape:cx="248.41616"
     inkscape:cy="118.46277"
     inkscape:window-width="1920"
     inkscape:window-height="1051"
     inkscape:window-x="-9"
     inkscape:window-y="-9"
     inkscape:window-maximized="1"
     inkscape:current-layer="layer1" />
  <defs
     id="defs1">
    <pattern
       id="EMFhbasepattern"
       patternUnits="userSpaceOnUse"
       width="6"
       height="6"
       x="0"
       y="0" />
  </defs>
  <g
     inkscape:label="Capa 1"
     inkscape:groupmode="layer"
     id="layer1">
    <path
       style="fill:#000000;stroke:#000000;stroke-width:0.2;stroke-dasharray:none"
       d="m 9.0901709,12.232961 c 0,-0.116559 0.322107,-0.211926 0.7157934,-0.211926 0.3936857,0 0.8146017,-0.119209 0.9353697,-0.264908 0.120767,-0.145699 1.174273,-2.315295 2.341125,-4.821325 1.166852,-2.5060287 2.245375,-4.5564167 2.396718,-4.5564167 0.151343,0 1.244218,2.050388 2.428611,4.5564167 1.184394,2.50603 2.26362,4.675626 2.398281,4.821325 0.13466,0.145699 0.580489,0.264908 0.990731,0.264908 0.443297,0 0.692758,0.08598 0.614916,0.211926 -0.174524,0.282387 -4.768343,0.282387 -4.768343,0 0,-0.116559 0.333784,-0.211926 0.741742,-0.211926 0.407958,0 0.741742,-0.05863 0.741742,-0.13029 0,-0.390221 -3.481345,-7.4897607 -3.603672,-7.349001 -0.370367,0.426177 -3.374147,7.121398 -3.270339,7.289364 0.06456,0.10446 0.451166,0.189927 0.859124,0.189927 0.440529,0 0.688554,0.08606 0.610765,0.211926 -0.07235,0.117071 -1.026512,0.211927 -2.131771,0.211927 -1.1925777,0 -2.0007931,-0.08561 -2.0007931,-0.211927 z M 36.843757,7.729526 C 35.63999,5.136077 34.553471,2.9441003 34.429268,2.8584653 c -0.124202,-0.08564 -0.535765,-0.15716 -0.914583,-0.158945 -0.378819,-0.0018 -0.688761,-0.09861 -0.688761,-0.215171 0,-0.273131 4.592134,-0.285113 4.760667,-0.01242 0.06782,0.109728 -0.247009,0.228937 -0.699611,0.264908 l -0.822911,0.0654 1.677478,3.6027477 c 0.922613,1.981512 1.745091,3.670854 1.827728,3.754094 0.127633,0.128564 3.460459,-6.6797357 3.515824,-7.1821307 0.01059,-0.09609 -0.338372,-0.204309 -0.77547,-0.240485 -0.437098,-0.03618 -0.794724,-0.155385 -0.794724,-0.264908 0,-0.110952 0.938471,-0.199134 2.119264,-0.199134 1.271558,0 2.119264,0.08477 2.119264,0.211927 0,0.116559 -0.309943,0.213386 -0.688761,0.215171 -0.378819,0.0018 -0.795172,0.07331 -0.925229,0.158945 -0.130058,0.08563 -1.17281,2.1584037 -2.317228,4.6061527 -2.112165,4.517627 -2.356863,4.98027 -2.634132,4.98027 -0.08561,0 -1.14056,-2.121913 -2.344326,-4.715361 z m 22.684893,4.503435 c 0,-0.116559 0.26703,-0.211926 0.5934,-0.211926 0.96474,0 1.10202,-0.321382 1.10202,-2.580028 V 7.369603 L 59.17434,5.191884 C 56.792952,2.6618113 56.844942,2.7037533 56.084842,2.6995203 c -0.32054,-0.0018 -0.582796,-0.09861 -0.582796,-0.215171 0,-0.126413 0.812386,-0.211927 2.013301,-0.211927 1.200923,0 2.013303,0.08551 2.013303,0.211927 0,0.116559 -0.3407,0.211926 -0.75711,0.211926 h -0.75712 l 1.76377,1.9042277 c 0.97007,1.047325 1.90682,1.904227 2.08165,1.904227 0.17484,0 1.11159,-0.856902 2.08166,-1.904227 l 1.76377,-1.9042277 h -0.75712 c -0.41641,0 -0.75712,-0.09537 -0.75712,-0.211926 0,-0.280443 3.95925,-0.280443 4.13257,0 0.0777,0.125709 -0.16776,0.211926 -0.60333,0.211926 -0.6594,0 -0.96336,0.240724 -2.97948,2.3596257 l -2.24517,2.359626 v 2.048442 c 0,2.234347 0.13909,2.557066 1.10202,2.557066 0.32637,0 0.59339,0.09537 0.59339,0.211926 0,0.128441 -0.91834,0.211927 -2.33119,0.211927 -1.41284,0 -2.33119,-0.08349 -2.33119,-0.211927 z m 19.07338,0 c 0,-0.116559 0.26702,-0.211926 0.59339,-0.211926 1.05868,0 1.10202,-0.184715 1.10202,-4.697309 0,-3.9243327 -0.0259,-4.2025307 -0.40992,-4.4080677 -0.22546,-0.120661 -0.60693,-0.219383 -0.84771,-0.219383 -0.24078,0 -0.43778,-0.09537 -0.43778,-0.211926 0,-0.123369 0.64204,-0.204782 1.53646,-0.194828 l 1.53647,0.0171 3.92064,4.2193417 3.92064,4.219341 0.058,-3.731875 c 0.063,-4.0524227 -6.7e-4,-4.3171517 -1.03759,-4.3171517 -0.33541,0 -0.60983,-0.09537 -0.60983,-0.211926 0,-0.127156 0.8477,-0.211927 2.11926,-0.211927 1.18079,0 2.11927,0.08818 2.11927,0.199134 0,0.109523 -0.35763,0.228732 -0.79473,0.264908 l -0.79472,0.06577 -0.10597,4.7683427 c -0.10146,4.566012 -0.12394,4.770898 -0.52981,4.828553 -0.31392,0.04459 -1.49571,-1.090588 -4.55642,-4.376716 L 81.25114,3.5854913 81.19344,7.510892 c -0.0627,4.257869 -0.005,4.510141 1.03737,4.510141 0.3354,0 0.60983,0.09537 0.60983,0.211926 0,0.127156 -0.84771,0.211927 -2.11927,0.211927 -1.27156,0 -2.11926,-0.08477 -2.11926,-0.211927 z m 23.73575,0 c 0,-0.116559 0.30994,-0.213386 0.68876,-0.215171 0.37882,-0.0018 0.79794,-0.07331 0.93139,-0.158945 0.13344,-0.08563 1.22707,-2.277612 2.43029,-4.871061 1.20321,-2.5934487 2.29441,-4.7153617 2.42488,-4.7153617 0.13048,0 1.21887,2.091426 2.41866,4.6476137 1.19979,2.556187 2.28344,4.749625 2.40812,4.874306 0.12468,0.124681 0.54141,0.226693 0.92605,0.226693 0.38465,0 0.69936,0.09537 0.69936,0.211926 0,0.128441 -0.91835,0.211927 -2.33119,0.211927 -1.41284,0 -2.33119,-0.08349 -2.33119,-0.211927 0,-0.116559 0.2861,-0.211926 0.63578,-0.211926 0.34968,0 0.63578,-0.08827 0.63578,-0.196151 0,-0.245487 -3.1507,-7.056089 -3.36691,-7.277972 -0.13161,-0.1350567 -3.35254,6.48803 -3.48021,7.156233 -0.0223,0.11656 0.31714,0.241525 0.75423,0.277701 0.4371,0.03618 0.79473,0.155385 0.79473,0.264908 0,0.110952 -0.93847,0.199134 -2.11927,0.199134 -1.27155,0 -2.11926,-0.08477 -2.11926,-0.211927 z M 3.2959199,7.476082 c -0.221401,-0.576961 0.08569,-0.99278 0.682109,-0.923615 0.434303,0.05036 0.555725,0.180206 0.555725,0.594262 0,0.414055 -0.121422,0.543896 -0.555725,0.594261 -0.352028,0.04082 -0.60205,-0.05628 -0.682109,-0.264908 z m 23.2545551,0.0034 c -0.211008,-0.549879 0.08475,-1.004358 0.605471,-0.930415 0.350258,0.04974 0.477782,0.209258 0.477782,0.597662 0,0.388403 -0.127524,0.547924 -0.477782,0.597661 -0.286583,0.04069 -0.52888,-0.06531 -0.605471,-0.264908 z m 23.09427,-0.01486 c -0.200185,-0.521676 0.08781,-0.953668 0.635779,-0.953668 0.282587,0 0.568687,0.14305 0.63578,0.317889 0.200185,0.521676 -0.08781,0.953669 -0.63578,0.953669 -0.282586,0 -0.568687,-0.143051 -0.635779,-0.31789 z M 72.88002,7.146733 c 0,-0.599263 0.0568,-0.657401 0.58279,-0.596875 0.46249,0.05322 0.5828,0.176434 0.5828,0.596875 0,0.42044 -0.12031,0.543659 -0.5828,0.596874 -0.52603,0.06053 -0.58279,0.0024 -0.58279,-0.596874 z m 23.81809,0.332753 c -0.21101,-0.549879 0.0848,-1.004358 0.60547,-0.930415 0.35026,0.04974 0.47778,0.209258 0.47778,0.597662 0,0.388403 -0.12752,0.547924 -0.47778,0.597661 C 97.017,7.785084 96.7747,7.679084 96.69811,7.479486 Z m 23.09427,-0.01486 c -0.20018,-0.521676 0.0878,-0.953668 0.63578,-0.953668 0.54797,0 0.83597,0.431992 0.63578,0.953668 -0.0671,0.174839 -0.35319,0.31789 -0.63578,0.31789 -0.28259,0 -0.56869,-0.143051 -0.63578,-0.31789 z"
       id="path1"
       sodipodi:nodetypes="sssssssssssssssssssssssscssssssssssssssscsssssscssscssssscssssscsssssscccsssssscsssccsssccsssssssssssssssssssssssssssssssssssssssssssssssss" />
  </g>
</svg>
